<svg width="16" height="12" viewBox="0 0 16 12" fill="none" xmlns="http://www.w3.org/2000/svg">
<path fill-rule="evenodd" clip-rule="evenodd" d="M0 0.75C0 0.551088 0.0790175 0.360322 0.21967 0.21967C0.360322 0.0790175 0.551088 0 0.75 0H15.25C15.4489 0 15.6397 0.0790175 15.7803 0.21967C15.921 0.360322 16 0.551088 16 0.75C16 0.948912 15.921 1.13968 15.7803 1.28033C15.6397 1.42098 15.4489 1.5 15.25 1.5H0.75C0.551088 1.5 0.360322 1.42098 0.21967 1.28033C0.0790175 1.13968 0 0.948912 0 0.75ZM0 6C0 5.80109 0.0790175 5.61032 0.21967 5.46967C0.360322 5.32902 0.551088 5.25 0.75 5.25H15.25C15.4489 5.25 15.6397 5.32902 15.7803 5.46967C15.921 5.61032 16 5.80109 16 6C16 6.19891 15.921 6.38968 15.7803 6.53033C15.6397 6.67098 15.4489 6.75 15.25 6.75H0.75C0.551088 6.75 0.360322 6.67098 0.21967 6.53033C0.0790175 6.38968 0 6.19891 0 6ZM0 11.25C0 11.0511 0.0790175 10.8603 0.21967 10.7197C0.360322 10.579 0.551088 10.5 0.75 10.5H15.25C15.4489 10.5 15.6397 10.579 15.7803 10.7197C15.921 10.8603 16 11.0511 16 11.25C16 11.4489 15.921 11.6397 15.7803 11.7803C15.6397 11.921 15.4489 12 15.25 12H0.75C0.551088 12 0.360322 11.921 0.21967 11.7803C0.0790175 11.6397 0 11.4489 0 11.25Z" fill="black"/>
</svg>
